# xmcd
#
# Track frame offsets: 
#        200
#        17560
#        42105
#        65925
#        88760
#        100425
#        117020
#        137997
#        175305
#        200807
#        218045
#        238187
#        259492
#        286302
#
# Disc length: 4041 seconds
#
# Revision: 1
# Processed by: cddbd v1.5.2PL0 Copyright (c) Steve Scherf et al.
# Submitted via: ExactAudioCopy v0.99pb5
#
DISCID=dc0fc70e
DTITLE=Karayorgis - Pakula - Lines
DYEAR=1995
DGENRE=Jazz
TTITLE0=317 E.32nd Street
TTITLE1=Two Not One
TTITLE2=King Olivier
TTITLE3=Dark Song
TTITLE4=Featherbed
TTITLE5=Kary's Trance
TTITLE6=Mishing
TTITLE7=April - All About You
TTITLE8=Lament
TTITLE9=In Time
TTITLE10=Dreams
TTITLE11=Out and Out
TTITLE12=Baby
TTITLE13=Background Music
EXTD=YEAR: 1995
EXTT0=
EXTT1=
EXTT2=
EXTT3=
EXTT4=
EXTT5=
EXTT6=
EXTT7=
EXTT8=
EXTT9=
EXTT10=
EXTT11=
EXTT12=
EXTT13=
PLAYORDER=
